<?xml version="1.0" encoding="UTF-8"?>
<!-- Generator: Adobe Illustrator 17.0.0, SVG Export Plug-In . SVG Version: 6.00 Build 0)  -->
<!DOCTYPE svg PUBLIC "-//W3C//DTD SVG 1.1 Tiny//EN" "http://www.w3.org/Graphics/SVG/1.1/DTD/svg11-tiny.dtd">
<svg version="1.1" baseProfile="tiny" id="Laag_1" xmlns:x="http://ns.adobe.com/Extensibility/1.0/" xmlns:i="http://ns.adobe.com/AdobeIllustrator/10.0/" xmlns:graph="http://ns.adobe.com/Graphs/1.0/" xmlns="http://www.w3.org/2000/svg" xmlns:xlink="http://www.w3.org/1999/xlink" xmlns:a="http://ns.adobe.com/AdobeSVGViewerExtensions/3.0/" x="0px" y="0px" width="595.3px" height="1587.4px" viewBox="0 0 595.3 1587.4" xml:space="preserve">
<metadata>
	<sfw xmlns="http://ns.adobe.com/SaveForWeb/1.0/">
		<slices/>
		<sliceSourceBounds width="595.5" height="1587.4" bottomLeftOrigin="true" y="-1587.4" x="0"/>
	</sfw>
</metadata>
<g>
	<polyline fill="#330066" points="446.7,275.6 0.2,275.8 0.2,811.9 89.5,811.9 89.5,901.2 446.7,901.2 446.7,811.9 178.9,811.9    178.9,722.5 89.5,722.5 89.5,365.1 447.1,365.2  "/>
	<path fill="#D30033" d="M430.2,359.6v5.5h-5.9v-5.5h-61.1v5.5h-5.9v-5.6h0.2v-27.9h0.1v-11.2h22.2v-16.7h-22.2V287h22.2l0,0h16.7   v50.2h-22.3v5.7h50.2v-50.4H402v-16.7h39.1v83.8L430.2,359.6L430.2,359.6L430.2,359.6z M435.7,287v-5.8h-5.8v5.8H435.7z M418.7,287   h5.7v-5.8h-5.7V287z M407.4,287h5.8v-5.8h-5.8V287z M385.4,292.4v5.7h5.5v-5.7H385.4z M435.7,298.2v-5.7h-5.8v5.7H435.7z    M374.2,298.3h5.6v-5.8h-5.6V298.3z M363,298.3h5.7v-5.8H363V298.3z M385.4,303.7L385.4,303.7l-0.2,0.1v5.5h5.7v-5.5L385.4,303.7   L385.4,303.7z M429.8,309.5h5.8v-5.7h-5.8V309.5z M391,314.7h-5.7v5.7h5.7V314.7z M429.8,320.7h5.8v-5.8h-5.8V320.7z M391,325.9   h-5.7v5.7h5.7V325.9z M379.8,325.9h-5.6v5.7h5.6V325.9z M363,331.6h5.5v-5.7H363V331.6z M446.8,332h-5.6v-5.9h5.6V332z    M429.8,331.9h5.8v-5.7h-5.8V331.9z M362.9,337.2v5.7h5.7v-5.7H362.9z M429.8,342.9h5.8v-5.5h-5.8V342.9z M418.7,354.1h5.7v-5.7   h-5.7V354.1z M407.4,354.1h5.8v-5.7h-5.8V354.1z M396.3,354.1h5.7v-5.7h-5.7V354.1z M385,354.1h5.8v-5.7H385V354.1z M374.2,354.1   h5.4v-5.7h-5.4V354.1z M368.4,354.1v-5.7h-5.5v5.7H368.4z M435.7,348.6h-5.8v5.5h5.8V348.6z"/>
	<path fill="#D30033" d="M268.1,281.4v-5.6h16.5v16.8h-5.5v5.6h5.5v22.1h-5.5l-0.1,11.3h5.5v28.1h11.3v-11.3h-5.6v-16.8h5.6v-11.3   h-5.6v-22.1h5.6v-22.4h22.3v16.8h-5.5v5.6h5.6v22.1h-5.6v11.3h5.5v28.1h11.3v-11.3h-5.6v-16.8h5.6v-11.3H324v-22.1h5.5v-22.4h22.3   v16.8h-5.5v5.6h5.5v22.1h-5.5v11.3h5.5v16.8h-5.5v11.3h11.2v5.6h-16.8v-22.4h5.6v-5.6h-5.6v-22.4h5.6v-11h-5.6V287h5.6v-5.5H335   v22.3h-5.5v11h5.5v22.4h-5.5v5.6h5.5v22.4h-22.3v-28.1h-5.6v-22.4h5.7v-11h-5.7V287h5.6v-5.5h-11.3v22.3h-5.5v11h5.5v22.4h-5.5v5.6   h5.5v22.4h-22.3v-28.1h-5.6v-22.4h5.6v-11h-5.6V287h5.6v-5.5L268.1,281.4L268.1,281.4z"/>
	<path fill="#D30033" d="M178.8,281.4v-5.6h16.5v16.8h-5.5v5.6h5.5v22.1h-5.4l-0.1,11.3h5.5v28.1h11.3v-11.3H201v-16.8h5.6v-11.3   H201v-22.1h5.6v-22.4h22.3v16.8h-5.5v5.6h5.6v22.1h-5.6v11.3h5.5v28.1h11.3v-11.3h-5.6v-16.8h5.6v-11.3h-5.5v-22.1h5.5v-22.4h22.3   v16.8H257v5.6h5.5v22.1H257v11.3h5.5v16.8H257v11.3h11.2v5.6h-16.8v-22.4h5.6v-5.6h-5.6v-22.4h5.6v-11h-5.6V287h5.6v-5.5h-11.3   v22.3h-5.4v11h5.4v22.4h-5.5v5.6h5.5v22.4h-22.3v-28.1h-5.6v-22.4h5.7v-11h-5.7V287h5.6v-5.5h-11.3v22.3h-5.5v11h5.5v22.4h-5.5v5.6   h5.5v22.4h-22.3v-28.1h-5.6v-22.4h5.6v-11h-5.6V287h5.6v-5.5L178.8,281.4L178.8,281.4z"/>
	<path fill="#D30033" d="M162.2,359.6v5.5h-5.9v-5.5H95.2v5.5h-5.9v-5.6h0.2v-27.9h0.1v-11.2h22.2v-16.7H89.5V287h22.2l0,0h16.7   v50.2h-22.3v5.7h50.2v-50.4h-22.4v-16.7H173v83.8L162.2,359.6L162.2,359.6L162.2,359.6z M167.6,287v-5.8h-5.8v5.8H167.6z    M150.6,287h5.7v-5.8h-5.7V287z M139.4,287h5.8v-5.8h-5.8V287z M117.4,292.4v5.7h5.5v-5.7H117.4z M167.6,298.2v-5.7h-5.8v5.7H167.6   z M106.1,298.3h5.6v-5.8h-5.6V298.3z M95,298.3h5.7v-5.8H95V298.3z M117.4,303.7L117.4,303.7l-0.2,0.1v5.5h5.7v-5.5L117.4,303.7   L117.4,303.7z M161.8,309.5h5.8v-5.7h-5.8V309.5z M122.9,314.7h-5.7v5.7h5.7V314.7z M161.8,320.7h5.8v-5.8h-5.8V320.7z    M122.9,325.9h-5.7v5.7h5.7V325.9z M111.8,325.9h-5.6v5.7h5.6V325.9z M95,331.6h5.5v-5.7H95V331.6z M178.8,332h-5.6v-5.9h5.6V332z    M161.8,331.9h5.8v-5.7h-5.8V331.9z M94.9,337.2v5.7h5.7v-5.7H94.9z M161.8,342.9h5.8v-5.5h-5.8V342.9z M150.6,354.1h5.7v-5.7h-5.7   V354.1z M139.4,354.1h5.8v-5.7h-5.8V354.1z M128.2,354.1h5.7v-5.7h-5.7V354.1z M117,354.1h5.8v-5.7H117V354.1z M106.1,354.1h5.4   v-5.7h-5.4V354.1z M100.3,354.1v-5.7h-5.4v5.7H100.3z M167.6,348.6h-5.8v5.5h5.8V348.6z"/>
	<path fill="#D30033" d="M17,353.9v11.3H0.2v-5.6h11.2V354H0.1v-28.1h11.3v-22H0.1v-28.1h28.1v22.4h5.3v-17h11.3v-5.5h5.6v5.5h11   v22.6h22.4v11h5.6v5.6h-5.6v11.2H61.4v28.1h-11v5.4h-5.6v-5.4H33.3l0.1-2.9V354L17,353.9z M22.5,281.4H5.7v5.5h11.2v5.6H5.7v5.6   h16.8V281.4L22.5,281.4z M55.8,303.7v-16.8h-5.5v5.7h-5.6v-5.7H39v11.3h0.2v5.5H55.8z M33.7,320.4V315H22.5v-5.5h11.2v-0.2h-0.3   v-5.5H17v16.5L33.7,320.4L33.7,320.4z M39.2,309.3v0.2h11v22.2h5.6v-22.3L39.2,309.3L39.2,309.3z M61.4,309.5V326h16.9v-5.5h-5.5   v-5.6h5.5v-5.4H61.4L61.4,309.5z M33.4,348.3v-16.7h11.2V315h-5.4v11H28.1v22.3H33.4z M22.5,348.2v-16.8H5.7v16.8h5.5V337h5.6v11.2   H22.5L22.5,348.2z M39.1,354.1h5.6v-11.3h5.6v11.3h5.5v-16.9H39v11.2h0.4L39.1,354.1z"/>
	<path fill="#D30033" d="M33.6,454.5v-16.8H5.7v-27.9H0.2v-5.6h33.4v-11h-5.5v5.5H11.3v-22.4h33.5v-5.5H5.6v28H0v-33.6h50.4V382   H16.9v11.3h5.5v-5.6h16.8v11.2h44.6v-11.2H72.6v5.6H55.8v-22.4h33.6v5.5h-28v11.3H67v-5.6h22.4v22.4H39.2v5.6h44.6V449H44.6v-28   h28.1v16.7H55.8v-5.5H67v-5.6H50.2v16.8h28.1v-27.7h-39v38.9L33.6,454.5L33.6,454.5z M33.6,432.1v-5.6H16.9v-16.7h-5.5v22.3   L33.6,432.1L33.6,432.1z M33.6,409.8H22.5V421h11.1V409.8z"/>
	<path fill="#D30033" d="M5.8,543.8H0.2v-16.5H17v5.5h5.6v-5.5h22.1v5.5l11.3,0.1v-5.5h28V516H72.7v5.6H55.9V516H44.7v5.6H22.6V516   H0.2v-22.3H17v5.5h5.6v-5.6h22.1v5.6H56v-5.5h28v-11.3H72.7v5.6H55.9v-5.6H44.7v5.5H22.6v-5.5H0.2v-22.3H17v5.5h5.6v-5.5h22.1v5.5   H56v-5.5h16.8v5.5H84v-11.2h5.6v16.8H67.2v-5.6h-5.6v5.6H39.1v-5.6h-11v5.6H11.4v-5.6H5.8v11.3h22.3v5.5h11v-5.5h22.4v5.5h5.6v-5.5   h22.4v22.3H61.6v5.6H39.1v-5.7h-11v5.7H11.4v-5.6H5.8v11.3h22.3v5.5h11v-5.5h22.4v5.5h5.6v-5.5h22.4v22.3H61.6v5.6H39.1v-5.6h-11   v5.6H11.4v-5.6H5.8V543.8z"/>
	<path fill="#D30033" d="M33.8,633.2v-16.8H5.9v-27.9H0.4v-5.6h33.4v-11h-5.5v5.5H11.4V555h33.5v-5.5H5.8v28H0.2v-33.6h50.4v16.8   H17.1V572h5.5v-5.6h16.8v11.2H84v-11.2H72.8v5.6H56v-22.4h33.6v5.5h-28v11.3h5.6v-5.6h22.4V583H39.4v5.6H84v38.9H44.8v-27.9h28.1   v16.7H56v-5.5h11.2v-5.6H50.4V622h28.1v-27.7h-39v38.9H33.8L33.8,633.2z M33.8,610.8v-5.6H17.1v-16.7h-5.5v22.3H33.8L33.8,610.8z    M33.8,588.5H22.7v11.2h11.1C33.8,599.7,33.8,588.5,33.8,588.5z"/>
	<path fill="#D30033" d="M5.8,722.5H0.2V706H17v5.5h5.6V706h22.1v5.5l11.3,0.1V706h28v-11.3H72.7v5.6H55.9v-5.6H44.7v5.6H22.6v-5.6   H0.2v-22.3H17v5.5h5.6v-5.6h22.1v5.6H56v-5.5h28v-11.3H72.7v5.6H55.9v-5.6H44.7v5.5H22.6v-5.5H0.2v-22.3H17v5.5h5.6v-5.5h22.1v5.5   H56v-5.5h16.8v5.5H84v-11.2h5.6V650H67.2v-5.6h-5.6v5.6H39.1v-5.6h-11v5.6H11.4v-5.6H5.8v11.3h22.3v5.5h11v-5.5h22.4v5.5h5.6v-5.5   h22.4V678H61.6v5.6H39.1v-5.7h-11v5.7H11.4V678H5.8v11.3h22.3v5.5h11v-5.5h22.4v5.5h5.6v-5.5h22.4v22.3H61.6v5.6H39.1v-5.6h-11v5.6   H11.4v-5.6H5.8V722.5z"/>
	<path fill="#D30033" d="M78.3,795h11.3v16.8H84v-11.2h-5.6v11.3H50.2v-11.3h-22v11.3h-28v-28.1h22.4v-5.3h-17v-11.3H0.2v-5.6h5.4   v-11h22.6v-22.4h11v-5.6h5.6v5.6H56v22.4h28.1v11h5.4v5.6h-5.4v11.4l-2.9-0.1h-2.8L78.3,795z M33.9,750.6h16.5v-16.9h-5.5v5.5h-5.6   v-5.5h-5.4V750.6z M78.5,772.8v-5.6H67.2v-5.6h11.3v-5.5H61.6v16.8h11.2v-0.4L78.5,772.8z M33.7,772.7h0.2v-11H56v-5.6H33.7V772.7z    M28.1,756.1H11.3v5.5H17v5.6h-5.7v5.7h11.3v-0.2H28L28.1,756.1L28.1,756.1z M72.7,778.5H56v-11.2H39.4v5.4h11v11.1h22.3V778.5z    M44.8,778.3h-5.4v11.2h-5.5v-11.2h-0.2v0.3h-5.5V795h16.5v-16.7H44.8z M72.6,789.4H55.8v16.8h16.8v-5.5H61.5v-5.6h11.2L72.6,789.4   L72.6,789.4z M5.8,789.4v16.8h5.5V795H17v11.2h5.6v-16.8H5.8z"/>
	<path fill="#D30033" d="M122.9,811.9v-16.8H95.1v-27.9h-5.5v-5.6H123v-11h-5.5v5.5h-16.8v-22.4h33.5v-5.5H95v28h-5.6v-33.6h50.4   v16.8h-33.5v11.3h5.5v-5.6h16.8v11.2h44.6v-11.2H162v5.6h-16.8v-22.4h33.6v5.5h-28.1v11.3h5.6v-5.6h22.4v22.4h-50.2v5.6h44.6v38.9   h-39.2v-27.9H162v16.7h-16.8v-5.5h11.2v-5.6h-16.8v16.8h28.1V773h-39v38.9H122.9L122.9,811.9z M122.9,789.5v-5.6h-16.7v-16.7h-5.5   v22.3H122.9z M122.9,767.2h-11.1v11.2h11.1V767.2z"/>
	<path fill="#D30033" d="M178.8,895.7H112v5.5h-5.9v-50H89.4v-5.8h55.8v27.7h22.3v-55.3h-22.3v16.7H117V812h5.8v16.5h16.6v-16.7h34   v67h-34v-27.7H112v38.7h66.8V895.7L178.8,895.7z"/>
	<path fill="#D30033" d="M268.1,840.1v5.5h-5.5v44.9h-16.7v-17.2h-11.3v8.8l0.3,13.6h-16.7v-22.3h-5.8v11.2h-22.2v-22.2h5.6V857   h-5.6v-11.4h-11.3v-5.5h16.8v11.3h5.7v-17.1h-11.2v-16.6h11.2V812h50v44.9h-5.6v5.5h-33.1v-33.6H235v5.5h-17V857h22.2v-5.6h5.6v-34   h-39v5.7h-11.3v5.7h11.3v28.1h-5.6v10.9h-5.6V879h11.3v-11.2h16.7v22.3h5.7l-0.2-8v-14.3h22.2V885h5.8v-44.9H268.1L268.1,840.1   L268.1,840.1z M184.3,895.8h28.1v5.5h-33.6V890h5.4L184.3,895.8L184.3,895.8z"/>
	<path fill="#D30033" d="M357.5,895.6h-5.6v5.6h-5.5v-5.6h-5.7v0.1h-5.5v-0.1h-5.7v0.1H324v-0.1h-5.7v0.1h-5.5v-0.1h-5.7v0.1h-5.5   v-0.1H296v0.1h-5.5v-0.1h-5.7v0.1h-5.5v-0.1H268v-5.5h11.3V823H268v-5.5h78.3v-5.7h5.5v78.3h5.6L357.5,895.6L357.5,895.6z    M346.4,823h-5.7v5.7h5.7V823z M335.2,828.8V823h-5.7v5.7L335.2,828.8L335.2,828.8z M324.1,823h-5.7v5.7h5.7V823z M312.9,823h-5.7   v5.7h5.7V823z M301.7,823H296v5.7h5.7V823z M284.8,823v5.7h5.7V823H284.8z M346.4,834.3h-5.7v5.5h5.7V834.3z M335.2,834.3h-5.7v5.5   h5.7V834.3z M324.1,839.8v-5.5h-5.7v5.5H324.1z M312.9,834.3h-5.7v5.5h5.7V834.3z M296,834.3v5.5h5.7v-5.5H296z M284.8,839.8h5.7   v-5.5h-5.7V839.8z M346.4,845.4h-5.7v5.6h5.7V845.4z M329.5,851h5.7v-5.6h-5.7V851z M324.1,845.4h-5.7v5.6h5.7V845.4z M307.2,845.4   v5.6h5.7v-5.6H307.2z M301.7,845.4H296v5.6h5.7V845.4z M284.8,851h5.7v-5.6h-5.7V851z M346.4,856.5h-5.7v5.6h5.7V856.5z    M329.5,862.2h5.7v-5.6h-5.7V862.2z M318.3,862.2h5.7v-5.6h-5.7V862.2z M307.2,862.2h5.7v-5.6h-5.7V862.2z M296,856.5v5.6h5.7v-5.6   H296z M284.8,862.2h5.7v-5.6h-5.7V862.2z M340.7,873.3h5.7v-5.6h-5.7V873.3z M329.5,873.3h5.7v-5.6h-5.7V873.3z M318.3,873.3h5.7   v-5.6h-5.7V873.3z M307.2,873.3h5.7v-5.6h-5.7V873.3z M296,873.3h5.7v-5.6H296V873.3z M284.8,873.3h5.7v-5.6h-5.7V873.3z    M346.4,890.1v-11.3h-5.7v11.3H346.4z M335.2,890.1v-11.3h-5.7v11.3H335.2z M324.1,890.1v-11.3h-5.7v11.3H324.1z M312.9,890.1   v-11.3h-5.7v11.3H312.9z M301.7,890.1v-11.3H296v11.3H301.7z M290.6,890.1v-11.3h-5.7v11.3H290.6z"/>
	<path fill="#D30033" d="M446.8,840.1v5.5h-5.5v44.9h-16.7v-17.2h-11.3v8.8l0.3,13.6h-16.7v-22.3h-5.8v11.2h-22.2v-22.2h5.6V857   h-5.6v-11.4h-11.3v-5.5h16.8v11.3h5.7v-17.1h-11.2v-16.6H380V812h50v44.9h-5.6v5.5h-33.1v-33.6h22.4v5.5h-17V857h22.2v-5.6h5.6v-34   h-39v5.7h-11.3v5.7h11.3v28.1h-5.6v10.9h-5.6V879h11.3v-11.2h16.7v22.3h5.7l-0.2-8v-14.3H430V885h5.8v-44.9H446.8z M363,895.8h28.1   v5.5h-33.6V890h5.5V895.8L363,895.8z"/>
</g>
<g>
	<polyline fill="#000099" points="594.7,1343.3 595.3,918.3 85,918.3 85,1003.3 0,1003.3 0,1343.3 85,1343.3 85,1088.4    170.1,1088.4 170.1,1003.3 510.2,1003.3 511.6,1342.9  "/>
	<path fill="#FFF000" d="M515.5,1327.6h-5.3v-5.6h5.3v-58.2h-5.3v-5.6h5.4v0.2h26.5v0.1h10.6v21.2h15.9v-21.2h15.9v21.2h0.1v15.9   h-47.8v-21.3h-5.4v47.8h48v-21.3h15.9v37.2h-79.8L515.5,1327.6L515.5,1327.6z M584.6,1332.8h5.5v-5.5h-5.5V1332.8z M584.6,1316.6   v5.4h5.5v-5.4H584.6z M584.6,1305.9v5.5h5.5v-5.5H584.6z M579.5,1285H574v5.3h5.4L579.5,1285L579.5,1285z M573.9,1332.8h5.4v-5.5   h-5.4V1332.8z M573.8,1274.2v5.4h5.5v-5.4H573.8z M573.8,1263.6v5.4h5.5v-5.4H573.8z M568.7,1285L568.7,1285l-0.1-0.2h-5.2v5.4h5.3   V1285z M563.2,1327.2v5.5h5.4v-5.5H563.2z M558.2,1290.2v-5.4h-5.4v5.4H558.2z M552.5,1327.2v5.5h5.5v-5.5H552.5z M547.6,1290.2   v-5.4h-5.4v5.4H547.6z M547.6,1279.6v-5.4h-5.4v5.4H547.6z M542.1,1263.6v5.3h5.4v-5.3H542.1z M541.8,1343.4v-5.4h5.6v5.4H541.8z    M541.9,1327.2v5.5h5.4v-5.5H541.9z M536.9,1263.5h-5.4v5.4h5.4V1263.5z M531.4,1327.2v5.5h5.3v-5.5H531.4z M520.8,1316.6v5.4h5.4   v-5.4H520.8z M520.8,1305.9v5.5h5.4v-5.5H520.8z M520.8,1295.3v5.4h5.4v-5.4H520.8z M520.8,1284.5v5.5h5.4v-5.5H520.8z    M520.8,1274.2v5.1h5.4v-5.1H520.8z M520.8,1268.7h5.4v-5.2h-5.4V1268.7z M526,1332.8v-5.5h-5.2v5.5H526z"/>
	<path fill="#FFF000" d="M589.9,1173.3h5.4v15.7h-16v-5.3h-5.4v5.3h-21v-5.2l-10.7-0.1v5.3h-26.7v10.7h10.7v-5.4h16v5.4h10.7v-5.4   h21v5.4h21.3v21.3h-16v-5.3h-5.4v5.4h-21v-5.4h-10.7v5.3h-26.7v10.7h10.7v-5.4h16v5.4h10.7v-5.3h21v5.3h21.3v21.3h-16v-5.3h-5.4   v5.3h-21v-5.3H542v5.3h-16v-5.3h-10.7v10.6h-5.4v-16h21.3v5.4h5.4v-5.4h21.3v5.4h10.5v-5.4h16v5.4h5.3V1237h-21.3v-5.2h-10.5v5.2   h-21.3v-5.3h-5.4v5.3h-21.3v-21.3h26.7v-5.4h21.3v5.4h10.5v-5.4h16v5.4h5.3V1205h-21.3v-5.3h-10.5v5.3h-21.3v-5.3h-5.4v5.3h-21.3   v-21.3h26.7v-5.4h21.3v5.4h10.5v-5.4h16v5.4h5.3L589.9,1173.3L589.9,1173.3z"/>
	<path fill="#FFF000" d="M589.9,1088.3h5.4v15.7h-16v-5.3h-5.4v5.3h-21v-5.2l-10.7-0.1v5.3h-26.7v10.7h10.7v-5.4h16v5.4h10.7v-5.4   h21v5.4h21.3v21.3h-16v-5.3h-5.4v5.4h-21v-5.4h-10.7v5.3h-26.7v10.7h10.7v-5.4h16v5.4h10.7v-5.3h21v5.3h21.3v21.3h-16v-5.3h-5.4   v5.3h-21v-5.3H542v5.3h-16v-5.3h-10.7v10.6h-5.4v-16h21.3v5.4h5.4v-5.4h21.3v5.4h10.5v-5.4h16v5.4h5.3V1152h-21.3v-5.2h-10.5v5.2   h-21.3v-5.3h-5.4v5.3h-21.3v-21.3h26.7v-5.4h21.3v5.4h10.5v-5.4h16v5.4h5.3V1120h-21.3v-5.3h-10.5v5.3h-21.3v-5.3h-5.4v5.3h-21.3   v-21.3h26.7v-5.4h21.3v5.4h10.5v-5.4h16v5.4h5.3L589.9,1088.3L589.9,1088.3z"/>
	<path fill="#FFF000" d="M515.5,1072.4h-5.3v-5.6h5.3v-58.2h-5.3v-5.6h5.4v0.2h26.5v0.1h10.6v21.2h15.9v-21.2h15.9v21.2h0.1v15.9   h-47.8v-21.3h-5.4v47.8h48v-21.3h15.9v37.2h-79.8L515.5,1072.4L515.5,1072.4z M584.6,1077.6h5.5v-5.5h-5.5V1077.6z M584.6,1061.5   v5.4h5.5v-5.4H584.6z M584.6,1050.8v5.5h5.5v-5.5H584.6z M579.5,1029.8H574v5.3h5.4L579.5,1029.8L579.5,1029.8z M573.9,1077.6h5.4   v-5.5h-5.4V1077.6z M573.8,1019.1v5.4h5.5v-5.4H573.8z M573.8,1008.5v5.4h5.5v-5.4H573.8z M568.7,1029.8L568.7,1029.8l-0.1-0.2   h-5.2v5.4h5.3V1029.8z M563.2,1072.1v5.5h5.4v-5.5H563.2z M558.2,1035.1v-5.4h-5.4v5.4H558.2z M552.5,1072.1v5.5h5.5v-5.5H552.5z    M547.6,1035.1v-5.4h-5.4v5.4H547.6z M547.6,1024.5v-5.4h-5.4v5.4H547.6z M542.1,1008.5v5.3h5.4v-5.3H542.1z M541.8,1088.3v-5.4   h5.6v5.4H541.8z M541.9,1072.1v5.5h5.4v-5.5H541.9z M536.9,1008.4h-5.4v5.4h5.4V1008.4z M531.4,1072.1v5.5h5.3v-5.5H531.4z    M520.8,1061.5v5.4h5.4v-5.4H520.8z M520.8,1050.8v5.5h5.4v-5.5H520.8z M520.8,1040.1v5.4h5.4v-5.4H520.8z M520.8,1029.4v5.5h5.4   v-5.5H520.8z M520.8,1019.1v5.1h5.4v-5.1H520.8z M520.8,1013.6h5.4v-5.2h-5.4V1013.6z M526,1077.6v-5.5h-5.2v5.5H526z"/>
	<path fill="#FFF000" d="M521,934.3h-10.7v-16h5.4v10.6h5.4v-10.7h26.7v10.7h20.9v-10.7h26.7v26.7h-21.3v5h16.2v10.8h5.2v5.4h-5.2   v10.5h-21.5v21.3h-10.5v5.4h-5.4v-5.4h-10.6v-21.3h-26.7v-10.5h-5.1v-5.4h5.1v-10.9l2.8,0.1h2.6L521,934.3z M589.9,939.5v-16h-5.3   v10.6h-5.4v-10.6h-5.4v16H589.9z M568.7,971.3h16v-5.2h-5.4v-5.4h5.4v-5.4h-10.8v0.2h-5.2V971.3L568.7,971.3z M552.8,950.2h5.1   v-10.6h5.3v10.6h0.2v-0.3h5.2v-15.6h-15.7L552.8,950.2L552.8,950.2L552.8,950.2z M563.4,955.4h-0.2v10.5h-21.1v5.4h21.3V955.4z    M563.2,976.5h-15.7v16.1h5.3v-5.3h5.4v5.3h5.1L563.2,976.5L563.2,976.5z M526.2,949.9h15.9v10.6h15.8v-5.1h-10.5v-10.5h-21.3   L526.2,949.9L526.2,949.9z M526.3,939.5h16v-16h-16v5.3h10.6v5.4h-10.6V939.5z M520.8,955.4v5.4h10.7v5.4h-10.7v5.2h16.1v-16h-10.6   v0.3L520.8,955.4z"/>
	<path fill="#FFF000" d="M425.2,950.1h16v-26.5h26.5v-5.3h5.4v31.8h10.5v-5.3h-5.3v-16h21.3v31.9h5.3v-37.2h-26.6v-5.4h32v48h-16   v-31.9h-10.7v5.3h5.4v16h-10.6v42.4H489v-10.6h-5.4v-16h21.3v32h-5.3v-26.7h-10.7v5.4h5.4v21.3H473v-47.8h-5.4v42.4h-37v-37.3h26.5   v26.7h-15.9v-16h5.3v10.6h5.4v-16h-16v26.7h26.4v-37.2h-37L425.2,950.1L425.2,950.1L425.2,950.1z M446.5,950.1h5.4v-15.9h15.9v-5.3   h-21.3V950.1z M467.7,950.1v-10.5h-10.6v10.5H467.7z"/>
	<path fill="#FFF000" d="M340.2,923.6v-5.4h15.7v16h-5.3v5.4h5.3v21h-5.2l-0.1,10.7h5.3V998h10.7v-10.7h-5.4v-16h5.4v-10.7h-5.4v-21   h5.4v-21.3h21.3v16h-5.3v5.4h5.4v21h-5.4v10.7h5.3v26.7h10.7v-10.7h-5.4v-16h5.4v-10.7h-5.3v-21h5.3v-21.3h21.3v16h-5.3v5.4h5.3v21   h-5.3v10.7h5.3v16h-5.3v10.7h10.6v5.4h-16v-21.3h5.4v-5.4h-5.4v-21.3h5.4v-10.5h-5.4v-16h5.4v-5.3h-10.7v21.3h-5.2v10.5h5.2v21.3   h-5.3v5.4h5.3v21.3h-21.3v-26.7h-5.4v-21.3h5.4v-10.5h-5.4v-16h5.4v-5.3h-10.7v21.3h-5.3v10.5h5.3v21.3h-5.3v5.4h5.3v21.3h-21.3   v-26.7h-5.4v-21.3h5.4v-10.5h-5.4v-16h5.4v-5.3L340.2,923.6L340.2,923.6z"/>
	<path fill="#FFF000" d="M255.1,950.3h16v-26.5h26.5v-5.3h5.4v31.8h10.5V945h-5.3v-16h21.3v31.9h5.3v-37.2h-26.6v-5.4h32v48h-16   v-31.9h-10.7v5.3h5.4v16h-10.6v42.4h10.6v-10.6h-5.4v-16h21.3v32h-5.3v-26.7h-10.7v5.4h5.4v21.3h-21.3v-47.8h-5.4v42.4h-37v-37.3   H287v26.7h-15.9v-16h5.3v10.6h5.4v-16h-16v26.7h26.4v-37.2h-37L255.1,950.3L255.1,950.3L255.1,950.3z M276.4,950.3h5.4v-15.9h15.9   v-5.3h-21.3V950.3L276.4,950.3z M297.6,950.3v-10.5H287v10.5H297.6z"/>
	<path fill="#FFF000" d="M170.1,923.6v-5.4h15.7v16h-5.3v5.4h5.3v21h-5.2l-0.1,10.7h5.3V998h10.7v-10.7h-5.4v-16h5.4v-10.7h-5.4v-21   h5.4v-21.3h21.3v16h-5.3v5.4h5.4v21h-5.4v10.7h5.3v26.7h10.7v-10.7h-5.4v-16h5.4v-10.7h-5.3v-21h5.3v-21.3h21.3v16h-5.3v5.4h5.3v21   h-5.3v10.7h5.3v16h-5.3v10.7h10.6v5.4h-16v-21.3h5.4v-5.4h-5.4v-21.3h5.4v-10.5h-5.4v-16h5.4v-5.3h-10.7v21.3h-5.2v10.5h5.2v21.3   h-5.3v5.4h5.3v21.3h-21.3v-26.7h-5.4v-21.3h5.4v-10.5h-5.4v-16h5.4v-5.3h-10.7v21.3h-5.3v10.5h5.3v21.3h-5.3v5.4h5.3v21.3h-21.3   v-26.7h-5.4v-21.3h5.4v-10.5h-5.4v-16h5.4v-5.3L170.1,923.6L170.1,923.6L170.1,923.6z"/>
	<path fill="#FFF000" d="M101.1,992.6v10.7h-16v-5.4h10.6v-5.4H85v-26.7h10.7V945H85v-26.7h26.7v21.3h5v-16.2h10.8v-5.2h5.4v5.2   h10.5V945h21.3v10.5h5.4v5.4h-5.4v10.6h-21.3v26.7h-10.5v5.1h-5.4v-5.1h-10.9l0.1-2.8v-2.6L101.1,992.6z M143.4,950.3V966h16.1   v-5.3h-5.3v-5.4h5.3v-5.1L143.4,950.3L143.4,950.3z M122.2,992.8h5.4v-10.7h5.4v10.7h5.2v-16.1h-16v10.6h0.3L122.2,992.8z    M122.3,950.2v0.2h10.5v21.1h5.4v-21.3H122.3z M138.1,944.8v-16h-5.2v5.4h-5.4v-5.4h-5.4v10.8h0.2v5.2H138.1z M116.8,987.3v-15.9   h10.6v-15.8h-5.1v10.5h-10.5v21.3L116.8,987.3L116.8,987.3z M117,960.7v-5.1h-10.6v-5.3H117v-0.2h-0.3V945h-15.6v15.7H117z    M106.4,987.2v-16h-16v16h5.3v-10.6h5.4v10.6H106.4z M106.4,923.6h-16v5.3H101v5.4H90.4v5.4h16V923.6z"/>
	<path fill="#FFF000" d="M85,1035.1h16v-26.5h26.5v-5.3h5.4v31.8h10.5v-5.3h-5.3v-16h21.3v31.9h5.3v-37.2h-26.6v-5.4h32v48h-16   v-31.9h-10.7v5.3h5.4v16h-10.6v42.4h10.6v-10.6h-5.4v-16h21.3v32h-5.3v-26.7h-10.7v5.4h5.4v21.3h-21.3v-47.8h-5.4v42.4h-37v-37.3   h26.5v26.7H101v-16h5.3v10.6h5.4v-16h-16v26.7H122v-37.2H85V1035.1z M106.3,1035.1h5.4v-15.9h15.9v-5.3h-21.3V1035.1L106.3,1035.1z    M127.6,1035.1v-10.5H117v10.5H127.6z"/>
	<path fill="#FFF000" d="M5.3,1088.3v-63.6H0v-5.6h47.6v-15.8h5.5v53.1H26.8v21.3h52.6v-21.3H63.5v-26.9h21.3v5.5H69.1v15.8H85v32.3   H21.3v-32.3h26.4v-26.1H10.8v63.6L5.3,1088.3L5.3,1088.3z"/>
	<path fill="#FFF000" d="M58.2,1173.3H53v-5.3H10.3v-15.9h16.3v-10.7h-8.3l-12.9,0.3v-15.9h21.3v-5.5H16v-21.2h21.2v5.4h5.1v-5.4   h10.9v-10.8h5.2v16H47.5v5.4h16.2v-10.6h15.8v10.6H85v47.6H42.3v-5.4H37v-31.6h32v21.3h-5.2v-16.2H42.2v21.2h5.4v5.4h32.3v-37h-5.4   v-10.7H69v10.7H42.3v-5.4H31.9v-5.4H21.2v10.8h10.6v15.9H10.5v5.4l7.7-0.2h13.6v21.1H15.5v5.5h42.7V1173.3z M5.2,1093.5v26.8H0v-32   h10.6v5.2H5.2z"/>
	<path fill="#FFF000" d="M5.4,1258.3v-5.4H0v-5.2h5.4v-5.4H5.3v-5.2h0.1v-5.4H5.3v-5.2h0.1v-5.4H5.3v-5.2h0.1v-5.4H5.3v-5.2h0.1   v-5.4H5.3v-5.2h0.1v-5.4H5.3v-5.2h0.1v-10.7h5.2v10.7h63.9v-10.7h5.2v74.5H85v5.2H10.5v5.4L5.4,1258.3L5.4,1258.3z M74.4,1247.8   v-5.4H69v5.4H74.4z M69,1237.2h5.4v-5.4H69V1237.2z M74.4,1226.5v-5.4H69v5.4H74.4z M74.4,1215.9v-5.4H69v5.4H74.4z M74.4,1205.3   v-5.4H69v5.4H74.4z M74.4,1189.2H69v5.4h5.4V1189.2z M63.7,1247.8v-5.4h-5.3v5.4H63.7z M63.7,1237.2v-5.4h-5.3v5.4H63.7z    M58.4,1226.5h5.3v-5.4h-5.3V1226.5z M63.7,1215.9v-5.4h-5.3v5.4H63.7z M63.7,1199.8h-5.3v5.4h5.3V1199.8z M58.4,1189.2v5.4h5.3   v-5.4H58.4z M53.2,1247.8v-5.4h-5.4v5.4H53.2z M47.8,1231.7v5.4h5.4v-5.4H47.8z M53.2,1226.5v-5.4h-5.4v5.4H53.2z M53.2,1210.5   h-5.4v5.4h5.4V1210.5z M53.2,1205.3v-5.4h-5.4v5.4H53.2z M47.8,1189.2v5.4h5.4v-5.4H47.8z M42.5,1247.8v-5.4h-5.4v5.4H42.5z    M37.2,1231.7v5.4h5.4v-5.4H37.2z M37.2,1221.1v5.4h5.4v-5.4H37.2z M37.2,1210.5v5.4h5.4v-5.4H37.2z M42.5,1199.8h-5.4v5.4h5.4   V1199.8z M37.2,1189.2v5.4h5.4v-5.4H37.2z M26.5,1242.4v5.4h5.4v-5.4H26.5z M26.5,1231.7v5.4h5.4v-5.4H26.5z M26.5,1221.1v5.4h5.4   v-5.4H26.5z M26.5,1210.5v5.4h5.4v-5.4H26.5z M26.5,1199.8v5.4h5.4v-5.4H26.5z M26.5,1189.2v5.4h5.4v-5.4H26.5z M10.5,1247.8h10.8   v-5.4H10.5V1247.8z M10.5,1237.2h10.8v-5.4H10.5C10.5,1231.7,10.5,1237.2,10.5,1237.2z M10.5,1226.5h10.8v-5.4H10.5V1226.5z    M10.5,1215.9h10.8v-5.4H10.5V1215.9z M10.5,1205.3h10.8v-5.4H10.5C10.5,1199.8,10.5,1205.3,10.5,1205.3z M10.5,1194.7h10.8v-5.4   H10.5C10.5,1189.2,10.5,1194.7,10.5,1194.7z"/>
	<path fill="#FFF000" d="M58.2,1343.4H53v-5.3H10.3v-15.9h16.3v-10.7h-8.3l-12.9,0.3v-15.9h21.3v-5.5H16v-21.2h21.2v5.4h5.1v-5.4   h10.9v-10.8h5.2v16H47.5v5.4h16.2v-10.6h15.8v10.6H85v47.6H42.3v-5.4H37v-31.6h32v21.3h-5.2v-16.2H42.2v21.2h5.4v5.4h32.3v-37.2   h-5.4v-10.7H69v10.7H42.3v-5.4H31.9v-5.4H21.2v10.8h10.6v15.9H10.5v5.4l7.7-0.2h13.6v21.1H15.5v5.5h42.7V1343.4L58.2,1343.4z    M5.2,1263.6v26.8H0v-32h10.6v5.2H5.2z"/>
</g>
<polygon fill="#DA00CC" points="141.6,1587.4 255,1587.4 255,1130 141.4,1130 141.4,1490.3 "/>
<path fill="#D30033" d="M233.7,1474.5h6.9v13.9h-13.7v7.1h-14.5v7.1h-13.9v7h-14.3v7.1h-7.3v7.1h-14.2v6.8h-14.3v7.3h14.3v7.1h14.2  v7.1h7.3v7.1h14.3v7.1h14.3v7h13.8v7.1h14.1v0.1h7.3v-78.6h-7.3v7H234v7.1h-14.3v7.1h-14.2v7.1H191v7.3h14.5v7.1h13.8v7.1h7.1v7.1  h7.1v-28.7h-7.1v7.1h-13.8v-6.9h6.8v-7.1h21.1v42.5h-21.1v-7.1h-7v-7.1h-13.8v-7h-14.5v-21.2h14.5v-7.1h14.2v-7.1h14.3v-7.1h6.6  v-7.1h21.1v92.5h-35.3v-7.1h-13.8v-7.1h-14.2v-7.1h-14.3v-7.1H170v-7.1h-14.3v-7h-14.2v-21.2h14.2v-6.8H170v-7.1h7.3v-7.1h14.3v-7.1  h13.8v-7.1H220v-7h13.7V1474.5L233.7,1474.5z"/>
<path fill="#D30033" d="M205.2,1357h6.9v7.3h7.1v21.4h21.3v-14.4h7v42.9h6.8v6.9h-6.8v13.7h-14.2v28.6h-14.2v7h-21.2v-21.3H184  v-14.3h-14v-14.2h-28.5v-63.5h21.1v28.5h7.4v-14.4h6.9v14.4h21.2v-21.4h7.1V1357L205.2,1357z M155.7,1371.4v-7.3h-7.3v7.3H155.7z   M205,1371.2v7.3h7.3v-7.3H205z M155.7,1385.6v-7.4h-7.3v7.4H155.7z M205,1385.4v0.2h0.3v7.1h6.9v-7.4L205,1385.4L205,1385.4z   M233.8,1392.6v7.4h6.9v-3.7h-0.1v-3.6h-6.8L233.8,1392.6L233.8,1392.6z M219.6,1392.6v7.4h6.8v-7.4H219.6z M198.1,1399.9v-7.4h-7  v7.4H198.1z M184.1,1399.9v-7.4h-7.3v7.4H184.1z M170,1399.5v-6.9h-7.4v6.9H170z M155.7,1399.5v-6.9h-7.3v6.9H155.7z M212.3,1399.7  h-6.9v7.3h6.9V1399.7z M233.8,1406.8v6.7h6.9v-6.7H233.8z M219.6,1406.8v6.7h6.8v-6.7H219.6z M198.1,1406.8h-7v6.8h7V1406.8z   M176.9,1413.6h7.3v-6.8h-7.3V1413.6z M170,1413.8v-6.9h-7.4v6.9H170z M155.7,1413.8v-6.9h-7.3v6.9H155.7z M205.3,1414v7.3h6.9v-7.3  H205.3z M233.5,1427.8h7.3v-6.8h-7.3V1427.8z M219.3,1421v6.8h7.1v-6.8H219.3z M198.1,1427.9v-6.9h-7v6.9H198.1z M184.1,1427.9v-6.9  h-7.3v6.9H184.1z M205.3,1428.2v6.9h6.9v-6.9H205.3z M219.3,1434.7v7.4h7.1v-7.4H219.3z M198.1,1442.1v-7.3h-7v7.3H198.1z   M205.3,1442.4v6.7h6.9v-6.7H205.3z M219.3,1449v7.3h7.1v-7.3H219.3z M212.3,1463.3v-7H205v7.1L212.3,1463.3z"/>
<path fill="#D30033" d="M204.6,1243.6h6.9v7.3h7.1v21.4H240v-14.4h7v42.9h6.8v6.9H247v13.7h-14.2v28.6h-14.2v7h-21.2v-21.2h-13.9  v-14.3h-14.2v-14.2h-28.5v-63.5H162v28.5h7.4v-14.4h6.9v14.4h21.2v-21.4h7.1L204.6,1243.6L204.6,1243.6z M155,1258v-7.3h-7.3v7.3  H155z M204.4,1257.9v7.3h7.3v-7.3H204.4z M155,1272.3v-7.4h-7.3v7.4H155z M204.4,1272v0.2h0.3v7.1h6.9v-7.4L204.4,1272L204.4,1272z   M233.2,1279.2v7.4h6.9v-3.7H240v-3.6h-6.8V1279.2z M219,1279.2v7.4h6.8v-7.4H219z M197.5,1286.5v-7.4h-7v7.4H197.5z M183.5,1286.5  v-7.4h-7.3v7.4H183.5z M169.3,1286.1v-6.9H162v6.9H169.3z M155,1286.1v-6.9h-7.3v6.9H155z M211.6,1286.3h-6.9v7.3h6.9V1286.3z   M233.2,1293.5v6.7h6.9v-6.7H233.2z M219,1293.5v6.7h6.8v-6.7H219z M197.5,1293.5h-7v6.8h7V1293.5z M176.2,1300.3h7.3v-6.8h-7.3  V1300.3z M169.3,1300.4v-6.9H162v6.9H169.3z M155,1300.4v-6.9h-7.3v6.9H155z M204.7,1300.6v7.3h6.9v-7.3H204.7z M232.8,1314.4h7.3  v-6.8h-7.3V1314.4z M218.7,1307.6v6.8h7.1v-6.8H218.7z M197.5,1314.5v-6.9h-7v6.9H197.5z M183.5,1314.5v-6.9h-7.3v6.9H183.5z   M204.7,1314.8v6.9h6.9v-6.9H204.7z M218.7,1321.4v7.4h7.1v-7.4H218.7z M197.5,1328.7v-7.3h-7v7.3H197.5z M204.7,1329.1v6.7h6.9  v-6.7H204.7z M218.7,1335.6v7.3h7.1v-7.3H218.7z M211.6,1349.9v-7h-7.3v7.1L211.6,1349.9z"/>
<path fill="#D30033" d="M141.5,1137.3v-7.1h21v21.3h-7v7.1h7v28h-6.9l-0.1,14.3h7v35.6h14.3v-14.3h-7.1v-21.3h7.1v-14.3h-7.1v-28  h7.1v-28.5h28.3v21.3h-7v7.1h7.1v28h-7.1v14.3h7v35.6h14.3v-14.3h-7.1v-21.3h7.1v-14.3h-7v-28h7V1130h28.3v21.3h-7v7.1h7v28h-7v14.3  h7v21.3h-7v14.3h14.2v7.1h-21.3v-28.5h7.1v-7.1h-7.1v-28.5h7.1v-13.9h-7.1v-21.3h7.1v-7h-14.3v28.3h-6.9v13.9h6.9v28.5h-7v7.1h7  v28.5h-28.3v-35.3H191v-28.5h7.3v-13.9H191v-21.3h7.1v-7h-14.3v28.3h-7v13.9h7v28.5h-7v7.1h7v28.5h-28.3v-35.6h-7.1v-28.5h7.1v-13.9  h-7.1v-21.3h7.1v-7L141.5,1137.3L141.5,1137.3z"/>
<g>
	<polygon fill="#FFF000" points="594.3,759.7 594.3,675.2 257.3,675 257.6,168.8 342,168.8 342,84.4 595.3,84.4 595.3,0 257.6,0    257.6,84.4 173.2,84.4 173.2,759.9  "/>
	<polygon fill="#003300" points="426.4,507 595.3,507 595.3,422.2 426.4,422.6  "/>
	<line fill="none" x1="224" y1="631.8" x2="224" y2="632.1"/>
	<g>
		<path fill="#FFF000" d="M510.8,490.9v5.2h-10.4v-10.2h-5.3V475h-5.3v-10.4h-5.2V454h-5.3v-5.4H474V438h-5.1v-10.6h-5.4V438h-5.3    v10.6h-5.3v5.4h-5.3v10.6h-5.3v10.6H437v10.3h-5.3V496h-0.1v5.4h58.5V496h-5.2v-4.9h-5.3v-10.6h-5.3V470H469v-10.8h-5.4V470h-5.3    v10.3H453v5.3h-5.3v5.3h21.4v-5.3h-5.3v-10.3h5.2v5.1h5.3v15.7h-31.7v-15.7h5.3v-5.2h5.3v-10.3h5.2V454H474v10.8h5.3v10.6h5.3V486    h5.3v4.9h5.3v15.7h-68.9v-26.3h5.3V470h5.3v-10.6h5.3v-10.6h5.3v-5.4h5.3v-10.6h5.2v-10.6h16v10.6h5.1v10.6h5.3v5.4h5.3v10.6h5.3    v10.3h5.3v10.9h5.2v10.2L510.8,490.9L510.8,490.9L510.8,490.9z"/>
		<path fill="#FFF000" d="M595.3,469.7v5.2h-5.4v5.3h-16v15.9h10.7v5.2h-31.9v5.1h-5.2v-5.1h-10.2v-10.6H516v-10.6h-5.2v-15.8h15.8    V454h10.6v-10.6h10.6v-21.2h47.3V438h-21.2v5.5h10.7v5.2h-10.7v15.8h16v5.3L595.3,469.7L595.3,469.7L595.3,469.7z M584.5,432.8    h5.4v-5.4h-5.4V432.8z M584.6,469.6h-5.4v5.4h5.4V469.6z M573.9,432.8h5.5v-5.4h-5.5V432.8z M574.1,469.6h-0.2v0.3h-5.3v5.2h5.5    V469.6z M568.8,491h-5.5v5.2h2.8v-0.1h2.7V491L568.8,491z M568.8,480.4h-5.5v5.1h5.5V480.4z M563.3,464.4h5.5v-5.2h-5.5V464.4z     M563.3,454h5.5v-5.4h-5.5V454z M563.6,443.5h5.2V438h-5.2V443.5z M563.6,432.8h5.2v-5.4h-5.2V432.8z M563.4,475v-5.2H558v5.2    H563.4z M558.1,491h-5v5.2h5V491z M558.1,480.4h-5v5.1h5V480.4z M558.1,464.4v-5.2H553v5.2H558.1z M553.1,448.6v5.4h5.1v-5.4    H553.1z M553,443.5h5.2V438H553V443.5z M553,432.8h5.2v-5.4H553V432.8z M552.8,469.8h-5.4v5.2h5.4V469.8z M542.5,490.7v5.4h5.1    v-5.4H542.5z M547.6,480.2h-5.1v5.3h5.1V480.2L547.6,480.2z M542.4,464.4h5.2v-5.2h-5.2V464.4z M542.4,454h5.2v-5.4h-5.2V454z     M542.2,469.8H537v5.2h5.2V469.8z M537.3,480.2h-5.5v5.3h5.5V480.2z M531.9,464.4h5.4v-5.2h-5.4V464.4z M531.6,469.8h-5v5.2h5    V469.8z M526.7,480.2h-5.4v5.3h5.4V480.2z M516.1,475h5.2v-5.4H516L516.1,475z"/>
		<path fill="#FFFFFF" d="M426.4,754.8v5.3h-15.6v-15.9h5.2v-5.3h-5.2V718h5.2l0.1-10.6h-5.2v-26.5h-10.6v10.6h5.3v15.9h-5.3V718    h5.3v20.9h-5.3v21.2H379v-15.9h5.2v-5.3h-5.3V718h5.3v-10.6H379v-26.5h-10.6v10.6h5.3v15.9h-5.3V718h5.2v20.9h-5.2v21.2h-21.1    v-15.9h5.2v-5.3h-5.2V718h5.2v-10.6h-5.2v-15.9h5.2v-10.6H342v-5.3h15.9v21.2h-5.3v5.3h5.3v21.2h-5.3v10.4h5.3v15.9h-5.3v5.2h10.6    v-21.1h5.2v-10.4h-5.2v-21.2h5.2v-5.3h-5.2v-21.2h21.1v26.5h5.3v21.2h-5.4v10.4h5.4v15.9h-5.3v5.2h10.6v-21.1h5.2v-10.4h-5.2    v-21.2h5.2v-5.3h-5.2v-21.2H416v26.5h5.3v21.2H416v10.4h5.3v15.9H416v5.2L426.4,754.8L426.4,754.8z"/>
		<path fill="#FFFFFF" d="M510.8,5.3V0h15.6v15.9h-5.2v5.3h5.2v20.9h-5.2l-0.1,10.6h5.2v26.5h10.6V68.6h-5.3V52.7h5.3V42.1h-5.3    V21.2h5.3V0H558v15.9h-5v5.3h5.3v20.9H553v10.6h5.2v26.5h10.6V68.6h-5.3V52.7h5.3V42.1h-5.2V21.2h5.2V0H590v15.9h-5.2v5.3h5.2    v20.9h-5.2v10.6h5.2v15.9h-5.2v10.6h10.6v5.3h-15.9V63.3h5.3V58h-5.3V36.8h5.3V26.4h-5.3V10.6h5.3V5.3h-10.6v21.1H569v10.4h5.2V58    H569v5.3h5.2v21.2H553V58h-5.3V36.8h5.4V26.4h-5.4V10.6h5.3V5.3h-10.6v21.1h-5.2v10.4h5.2V58h-5.2v5.3h5.2v21.2h-21.1V58H516V36.8    h5.3V26.4H516V10.6h5.3V5.3H510.8z"/>
		<path fill="#FFFFFF" d="M426.4,31.7h15.9V5.4h26.3V0.2h5.3v31.6h10.4v-5.2h-5.2v-16h21.2v31.7h5.2v-37h-26.4V0h31.7v47.6H495V16    h-10.6v5.2h5.3v15.9h-10.6v42.1h10.6V68.6h-5.3V52.8h21.2v31.7h-5.2V58h-10.6v5.3h5.3v21.2h-21.2V37.1h-5.3v42.1h-36.7V42.1h26.3    v26.5h-15.8V52.8h5.2v10.6h5.3V47.5H437V74h26.2V37.1h-36.7v-5.4C426.5,31.7,426.4,31.7,426.4,31.7z M447.5,31.7h5.3V16h15.8v-5.2    h-21.1L447.5,31.7L447.5,31.7z M468.6,31.7V21.3H458v10.5L468.6,31.7L468.6,31.7z"/>
		<path fill="#FFFFFF" d="M342,5.3V0h15.6v15.9h-5.2v5.3h5.2v20.9h-5.2l-0.1,10.6h5.2v26.5h10.6V68.6h-5.3V52.7h5.3V42.1h-5.3V21.2    h5.3V0h21.1v15.9H384v5.3h5.3v20.9H384v10.6h5.2v26.5H400V68.6h-5.3V52.7h5.3V42.1h-5.2V21.2h5.2V0h21.1v15.9h-5.2v5.3h5.2v20.9    h-5.2v10.6h5.2v15.9h-5.2v10.6h10.6v5.3h-15.9V63.3h5.3V58h-5.3V36.8h5.3V26.4h-5.3V10.6h5.3V5.3h-10.6v21.1h-5.2v10.4h5.2V58H400    v5.3h5.2v21.2h-21.1V58h-5.3V36.8h5.4V26.4h-5.4V10.6h5.3V5.3h-10.6v21.1h-5.2v10.4h5.2V58h-5.2v5.3h5.2v21.2h-21.1V58H347V36.8    h5.3V26.4H347V10.6h5.3V5.3H342z"/>
		<path fill="#FFFFFF" d="M273.5,73.9v10.6h-15.9v-5.3h10.6v-5.3h-10.6V47.4h10.6V26.6h-10.6V0.1H284v21.2h5v-16h10.7V0.1h5.3v5.2    h10.4v21.4h21.2V37h5.3v5.3h-5.3v10.6h-21.2v26.5H305v5.1h-5.3v-5.1h-10.8l0.1-2.8V74L273.5,73.9z M315.5,31.9v15.6h16v-5.2h-5.2    V37h5.2v-5.1C331.4,31.9,315.5,31.9,315.5,31.9z M294.4,74.1h5.3V63.4h5.3V74h5.2V58h-15.9v10.6h0.3L294.4,74.1z M294.5,31.7v0.2    h10.4v20.9h5.3V31.7H294.5z M310.2,26.4V10.6H305V16h-5.3v-5.4h-5.4v10.7h0.2v5.2L310.2,26.4L310.2,26.4z M289,68.6V52.9h10.6    V37.2h-5.1v10.4H284v21.1L289,68.6L289,68.6z M289.3,42.2v-5.1h-10.6v-5.2h10.6v-0.2H289v-5.2h-15.5v15.6h15.8V42.2z M278.7,68.6    V52.7h-15.9v15.9h5.2V58h5.3v10.6H278.7L278.7,68.6z M278.7,5.4h-15.9v5.2h10.6V16h-10.6v5.3h15.9V5.4z"/>
		<path fill="#FFFFFF" d="M257.5,116.2h15.9V89.8h26.3v-5.2h5.3v31.6h10.4V111h-5.2V95.1h21.2v31.7h5.2v-37h-26.4v-5.3H342v47.6    h-15.9v-31.7h-10.6v5.2h5.3v15.9h-10.6v42.1h10.6V153h-5.3v-15.9h21.2V169h-5.2v-26.5h-10.6v5.3h5.3V169H305v-47.5h-5.3v42.1H263    v-37.1h26.3V153h-15.8v-15.9h5.2v10.6h5.3v-15.9h-15.9v26.5h26.2v-36.9h-36.7L257.5,116.2L257.5,116.2z M278.6,116.2h5.3v-15.8    h15.8v-5.2h-21.1L278.6,116.2L278.6,116.2z M299.7,116.2v-10.5h-10.6v10.5H299.7z"/>
		<path fill="#FFFFFF" d="M178.3,169v-63.2h-5.2v-5.6h47.3V84.5h5.5v52.7h-26.2v21.1H252v-21.1h-15.8v-26.7h21.2v5.5h-15.6v15.7    h15.8v32.1h-63.3v-32.1h26.2v-25.9h-36.6V169H178.3L178.3,169L178.3,169z"/>
		<path fill="#FFFFFF" d="M230.8,253.4h-5.2v-5.2h-42.4v-15.8h16.2v-10.6h-8.3l-12.8,0.3v-15.8h21.1v-5.5H189v-21h21v5.3h5.1v-5.3    h10.8V169h5.2v15.9h-10.7v5.4h16.1v-10.6h15.7v10.6h5.4v47.3h-42.5v-5.3h-5.2V201h31.7v21.2h-5.2v-16H215v21h5.3v5.3h32.1v-36.9    H247V185h-5.4v10.6h-26.5v-5.3h-10.3V185h-10.6v10.7h10.6v15.8h-21.1v5.4l7.6-0.2h13.5v20.9h-16.2v5.5H231L230.8,253.4    L230.8,253.4z M178.2,174.2v26.6H173V169h10.6v5.2H178.2z"/>
		<path fill="#FFFFFF" d="M178.4,337.8v-5.3h-5.3v-5.2h5.3V322h-0.1v-5.2h0.1v-5.4h-0.1v-5.2h0.1v-5.4h-0.1v-5.2h0.1v-5.4h-0.1V285    h0.1v-5.4h-0.1v-5.2h0.1V269h-0.1v-5h0.1v-10.6h5.2V264H247v-10.6h5.2v74h5.4v5.2h-74v5.3L178.4,337.8L178.4,337.8z M247,327.4    V322h-5.4v5.4H247z M241.6,316.8h5.4v-5.4h-5.4V316.8z M247,306.3v-5.4h-5.4v5.4H247z M247,295.7v-5.4h-5.4v5.4H247z M247,285.1    v-5.4h-5.4v5.4H247z M247,269.2h-5.4v5.4h5.4V269.2z M236.3,327.4V322h-5.2v5.4H236.3z M236.3,316.8v-5.4h-5.2v5.4H236.3z     M231.1,306.3h5.2v-5.4h-5.2V306.3z M236.3,295.7v-5.4h-5.2v5.4H236.3z M236.3,279.7h-5.2v5.4h5.2V279.7z M231.1,269.2v5.4h5.2    v-5.4H231.1z M225.9,327.4V322h-5.3v5.4H225.9z M220.5,311.4v5.4h5.3v-5.4H220.5z M225.9,306.3v-5.4h-5.3v5.4H225.9z M225.9,290.3    h-5.3v5.4h5.3V290.3z M225.9,285.1v-5.4h-5.3v5.4H225.9z M220.5,269.2v5.4h5.3v-5.4H220.5z M215.3,327.4V322H210v5.4H215.3z     M210,311.4v5.4h5.3v-5.4H210z M210,300.8v5.4h5.3v-5.4H210z M210,290.3v5.4h5.3v-5.4H210z M215.3,279.7H210v5.4h5.3V279.7z     M210,269.2v5.4h5.3v-5.4H210z M199.4,322v5.4h5.3V322H199.4z M199.4,311.4v5.4h5.3v-5.4H199.4z M199.4,300.8v5.4h5.3v-5.4H199.4z     M199.4,290.3v5.4h5.3v-5.4H199.4z M199.4,279.7v5.4h5.3v-5.4H199.4z M199.4,269.2v5.4h5.3v-5.4H199.4z M183.6,327.4h10.7V322    h-10.7V327.4z M183.6,316.8h10.7v-5.4h-10.7V316.8z M183.6,306.3h10.7v-5.4h-10.7V306.3z M183.6,295.7h10.7v-5.4h-10.7V295.7z     M183.6,285.1h10.7v-5.4h-10.7V285.1z M183.6,274.6h10.7v-5.4h-10.7V274.6z"/>
		<path fill="#FFFFFF" d="M230.8,422.3h-5.2V417h-42.4v-15.8h16.2v-10.6h-8.3l-12.8,0.3v-15.8h21.1v-5.5H189v-21h21v5.3h5.1v-5.3    h10.8v-10.7h5.2v15.9h-10.7v5.4h16.1v-10.6h15.7v10.6h5.4v47.3h-42.5v-5.3h-5.2v-31.3h31.7v21.2h-5.2v-16H215v21h5.3v5.3h32.1    v-36.9H247v-10.6h-5.4v10.6h-26.5V359h-10.3v-5.3h-10.6v10.7h10.6v15.8h-21.1v5.4l7.6-0.2h13.5v20.9h-16.2v5.5H231L230.8,422.3    L230.8,422.3z M178.2,343.1v26.6H173V338h10.6v5.2h-5.4L178.2,343.1L178.2,343.1z"/>
		<path fill="#FFFFFF" d="M204.8,506.7v-15.9h-26.3v-26.3h-5.2v-5.3h31.6v-10.4h-5.2v5.2h-15.9v-21.2h31.7v-5.2h-37V454H173v-31.7    h47.6v15.9H189v10.6h5.2v-5.3h15.9V454h42.1v-10.6h-10.6v5.3h-15.9v-21.2h31.7v5.2H231v10.6h5.3V438h21.2v21.2H210v5.3h42.1v36.7    H215V475h26.5v15.8h-15.9v-5.2h10.6v-5.3h-15.9v15.9H247V470h-36.9v36.7H204.8L204.8,506.7L204.8,506.7z M204.8,485.6v-5.3H189    v-15.8h-5.2v21.1L204.8,485.6L204.8,485.6z M204.8,464.5h-10.5V475h10.5V464.5z"/>
		<path fill="#FFFFFF" d="M188.8,591.1h-5.2v-10.4h10.2v-5.3h10.8v-5.3H215v-5.2h10.6v-5.3h5.4v-5.3h10.6v-5.1h10.6v-5.4h-10.6v-5.3    H231v-5.3h-5.4v-5.3H215v-5.3h-10.6v-5.2h-10.3v-5.3h-10.5V512h-5.4v58.5h5.4v-5.2h4.9V560h10.6v-5.3h10.6v-5.3h10.8V544h-10.8    v-5.3h-10.3v-5.3h-5.3v-5.3h-5.3v21.4h5.3v-5.3h10.3v5.2h-5.1v5.3h-15.7V523h15.7v5.3h5.2v5.3h10.3v5.2h10.8v15.8h-10.8v5.3h-10.6    v5.3h-10.6v5.3h-4.9v5.3H173v-68.9h26.3v5.3h10.3v5.3h10.6v5.3h10.6v5.3h5.4v5.3h10.6v5.2h10.6v15.8h-10.6v5.1h-10.6v5.3h-5.4v5.3    h-10.6v5.3h-10.3v5.3H199v5.2h-10.2V591.1L188.8,591.1L188.8,591.1z"/>
		<path fill="#FFFFFF" d="M209.7,675.6h-5.2v-5.4h-5.3v-16h-15.9v10.7h-5.2V633H173v-5.2h5.1v-10.2h10.6v-21.3h10.6v-5.2h15.8v15.8    h10.4v10.6H236v10.6h21.2v47.3h-15.7v-21.2H236v10.7h-5.2v-10.7H215v16h-5.3V675.6L209.7,675.6z M246.6,664.9v5.4h5.4v-5.4H246.6z     M246.6,654.2v5.5h5.4v-5.5H246.6z M246.6,643.9v5.2h5.4v-5.2H246.6z M246.6,633.3v5.2h5.4v-5.2H246.6z M236,643.9v5.2h5.5v-5.2    H236z M236,633.3v5.2h5.5v-5.2H236z M225.4,643.6v5.5h5.4v-5.5H225.4z M230.8,633.4h-5.4v5.1h5.4V633.4z M225.4,622.7v5.2h5.4    v-5.2H225.4z M215.1,643.6v5.5h5.2v-5.5H215.1z M215.1,638.4h5.2v-5.1h-5.2V638.4z M215.1,622.7v5.2h5.2v-5.2H215.1z M215.1,612.2    v5.4h5.2v-5.4H215.1z M209.9,664.9v-5.4h-5.4v5.4H209.9z M209.9,654.4v-0.2h-0.3v-5.3h-5.2v5.5H209.9z M204.5,596.4v5.2h5.4v-5.3    L204.5,596.4z M204.5,643.7h5.2v-5.4h-5.2V643.7z M209.7,633.1v-5.4h-5.2v5.4H209.7z M209.7,622.5v-5.2h-5.2v5.2H209.7z     M209.7,611.9v-5h-5.2v5H209.7z M199.3,627.9v-5.1H194v5.1H199.3z M199.3,617.7v-5.5H194v5.5H199.3z M199.3,607v-5.4H194v5.4    H199.3z M199,649.1v-5.5h-5.1v5.5H199z M199,638.4v-5h-5.1v5H199z M188.7,622.8h-5.4v5.1h5.4V622.8z M188.5,649.1v-5.5h-5.2v2.8    h0.1v2.7H188.5L188.5,649.1z M188.5,638.4v-5h-5.2v5H188.5z"/>
		<path fill="#FFFFFF" d="M510.8,728.3H495v26.3h-26.3v5.2h-5.3v-31.6H453v5.2h5.2v15.9H437v-31.7h-5.2v37h26.4v5.3h-31.7v-47.6    h15.9V744H453v-5.2h-5.3v-15.9h10.6v-42.1h-10.6v10.6h5.3v15.9h-21.2v-31.7h5.2V702h10.6v-5.3h-5.3v-21.2h21.2V723h5.3v-42.1h36.7    V718h-26.3v-26.5H495v15.9h-5.2v-10.6h-5.3v15.9h15.9V686h-26.2v36.9h36.7L510.8,728.3L510.8,728.3z M489.7,728.3h-5.3v15.8h-15.8    v5.2h21.1L489.7,728.3L489.7,728.3z M468.6,728.3v10.5h10.6v-10.5H468.6z"/>
		<path fill="#FFFFFF" d="M595.3,754.7h-10.5v5.3H553v-5.3h-5.2v5.3H516v-21.4h15.5v-5.1H516v-10.6h-5.2v-5.5h5.2v-10.6h15.5v-5.1    H516v-21h31.8v4.9h5.2v-4.9h26.3v-5.2h5.6v26.2h-10.5v5.1h10.5v10.8h10.5v5.5h-10.5v10.5h-10.5v5.1h10.5v10.6h10.5L595.3,754.7    L595.3,754.7z M579.2,744.1h-20.8v10.5h20.8V744.1z M579.2,712.3h-20.8v15.6h20.8V712.3z M558.5,696.2h20.8v-10h-20.8V696.2z     M553,749.1v-10.6h15.9v-5.1H553v-10.6h-5.2v10.6H537v5.1h10.8v10.6H553z M537,706.7h10.8v10.6h5.2v-10.6h15.9v-5.1H553V691h-5.2    v10.6H537V706.7z M542.3,744.1h-20.9v10.5h20.9V744.1z M521.5,727.9h20.9v-15.6h-20.9V727.9z M521.5,696.2h20.9v-10h-20.9V696.2z"/>
		<path fill="#FFFFFF" d="M273.2,680.9v-5.2h5.6v5.2h57.8v-5.2h5.6v5.3H342v26.3h-0.1v10.6h-21v15.8h21v15.8h-21v0.1h-15.8v-47.5    h21.1v-5.4h-47.5v47.6h21.2v15.8h-37v-79.2L273.2,680.9L273.2,680.9z M268.1,749.5v5.5h5.5v-5.5H268.1z M284.1,749.5h-5.4v5.5h5.4    V749.5z M294.8,749.5h-5.5v5.5h5.5V749.5z M315.5,744.4V739h-5.2v5.4H315.5z M268.1,738.9v5.4h5.5v-5.4H268.1z M326.2,738.8h-5.3    v5.5h5.3V738.8z M336.7,738.8h-5.4v5.5h5.4V738.8z M315.5,733.8L315.5,733.8l0.2-0.1v-5.2h-5.4v5.2L315.5,733.8L315.5,733.8z     M273.6,728.3h-5.5v5.4h5.5V728.3z M310.3,723.3h5.4v-5.4h-5.4V723.3z M273.6,717.6h-5.5v5.5h5.5V717.6z M310.3,712.7h5.4v-5.4    h-5.4V712.7z M320.9,712.7h5.3v-5.4h-5.3V712.7z M336.7,707.3h-5.2v5.4h5.2V707.3z M257.5,707h5.3v5.6h-5.3V707z M273.6,707.1    h-5.5v5.4h5.5V707.1z M336.8,702.1v-5.4h-5.4v5.4H336.8z M273.6,696.7h-5.5v5.2h5.5V696.7z M284.1,686.1h-5.4v5.4h5.4V686.1z     M294.8,686.1h-5.5v5.4h5.5V686.1z M305.3,686.1h-5.4v5.4h5.4V686.1z M316,686.1h-5.5v5.4h5.5V686.1z M326.2,686.1h-5.1v5.4h5.1    V686.1z M331.7,686.1v5.4h5.2v-5.4H331.7z M268.1,691.3h5.5v-5.2h-5.5V691.3z"/>
		<path fill="#FFFFFF" d="M257.5,754.7v5.3h-15.6v-15.9h5.2v-5.3h-5.2V718h5.2l0.1-10.6H242v-26.5h-10.6v10.6h5.3v15.9h-5.3V718h5.3    v20.9h-5.3V760h-21.1v-15.9h5.2v-5.3h-5.3V718h5.3v-10.6h-5.2v-26.5h-10.6v10.6h5.3v15.9h-5.3V718h5.2v20.9h-5.2V760h-21.1v-15.9    h5.2v-5.3h-5.2V718h5.2v-10.6h-5.2v-15.9h5.2v-10.6h-10.6v-5.3H189v21.2h-5.3v5.3h5.3v21.2h-5.3v10.4h5.3v15.9h-5.3v5.2h10.6    v-21.1h5.2v-10.4h-5.2V702h5.2v-5.3h-5.2v-21.2h21.1V702h5.3v21.2h-5.4v10.4h5.4v15.9h-5.3v5.2H226v-21.1h5.2v-10.4H226V702h5.2    v-5.3H226v-21.2h21.1V702h5.3v21.2h-5.3v10.4h5.3v15.9h-5.3v5.2L257.5,754.7L257.5,754.7z"/>
	</g>
</g>
<g>
	<rect x="326.9" y="1047.2" fill="#000033" width="56.7" height="398"/>
	<g>
		<path fill="#FFFFFF" d="M330.4,1103.9v-42.4h-3.5v-3.7h31.7v-10.5h3.7v35.4h-17.6v14.2h35.1v-14.2h-10.6v-17.9h14.2v3.7H373v10.5    h10.6v21.5h-42.5V1079h17.6v-17.4h-24.5v42.4L330.4,1103.9L330.4,1103.9z"/>
		<path fill="#FFFFFF" d="M365.7,1160.6h-3.5v-3.5h-28.5v-10.6h10.9v-7.1H339l-8.6,0.2V1129h14.2v-3.7h-7.1v-14.1h14.1v3.6h3.4v-3.6    h7.3v-7.2h3.5v10.7h-7.2v3.6h10.8v-7.1H380v7.1h3.6v31.7h-28.5v-3.6h-3.5v-21h21.3v14.2h-3.5v-10.8H355v14.1h3.6v3.6h21.5v-24.8    h-3.6v-7.1h-3.6v7.1h-17.8v-3.6h-6.9v-3.6H341v7.2h7.1v10.6h-14.2v3.6l5.1-0.1h9.1v14.1h-10.9v3.7h28.5V1160.6L365.7,1160.6    L365.7,1160.6z M330.4,1107.4v17.9h-3.5V1104h7.1v3.5L330.4,1107.4L330.4,1107.4z"/>
		<path fill="#FFFFFF" d="M330.5,1217.3v-3.6h-3.6v-3.5h3.6v-3.6h-0.1v-3.5h0.1v-3.6h-0.1v-3.5h0.1v-3.6h-0.1v-3.5h0.1v-3.6h-0.1    v-3.5h0.1v-3.6h-0.1v-3.5h0.1v-3.6h-0.1v-3.5h0.1v-7.1h3.5v7.1h42.6v-7.1h3.5v49.7h3.6v3.5H334v3.6L330.5,1217.3L330.5,1217.3z     M376.5,1171.2h-3.6v3.6h3.6V1171.2z M365.8,1171.2v3.6h3.5v-3.6H365.8z M358.8,1171.2v3.6h3.6v-3.6H358.8z M351.7,1171.2v3.6h3.6    v-3.6H351.7z M344.6,1171.2v3.6h3.6v-3.6H344.6z M333.9,1174.8h7.2v-3.6h-7.2V1174.8z M376.5,1181.9v-3.6h-3.6v3.6H376.5z     M369.4,1178.3h-3.5v3.6h3.5V1178.3z M362.3,1181.9v-3.6h-3.6v3.6H362.3z M355.2,1178.3h-3.6v3.6h3.6V1178.3z M344.6,1178.3v3.6    h3.6v-3.6H344.6z M333.9,1181.9h7.2v-3.6h-7.2V1181.9z M376.5,1189v-3.6h-3.6v3.6H376.5z M369.4,1189v-3.6h-3.5v3.6H369.4z     M362.3,1185.4h-3.6v3.6h3.6V1185.4z M351.7,1185.4v3.6h3.6v-3.6H351.7z M344.6,1185.4v3.6h3.6v-3.6H344.6z M333.9,1189h7.2v-3.6    h-7.2V1189z M376.5,1196.1v-3.6h-3.6v3.6H376.5z M365.8,1196.1h3.5v-3.6h-3.5V1196.1z M358.8,1192.5v3.6h3.6v-3.6H358.8     M351.7,1192.5v3.6h3.6v-3.6H351.7z M344.6,1192.5v3.6h3.6v-3.6H344.6z M333.9,1196.1h7.2v-3.6h-7.2V1196.1z M372.9,1203.2h3.6    v-3.6h-3.6V1203.2z M369.4,1203.2v-3.6h-3.5v3.6H369.4z M358.8,1199.5v3.6h3.6v-3.6H358.8z M351.7,1199.5v3.6h3.6v-3.6H351.7z     M344.6,1199.5v3.6h3.6v-3.6H344.6z M333.9,1203.2h7.2v-3.6h-7.2V1203.2z M376.5,1210.3v-3.6h-3.6v3.6H376.5z M369.4,1210.3v-3.6    h-3.5v3.6H369.4z M362.3,1210.3v-3.6h-3.6v3.6H362.3z M355.2,1210.3v-3.6h-3.6v3.6H355.2z M344.6,1206.6v3.6h3.6v-3.6H344.6z     M333.9,1210.3h7.2v-3.6h-7.2V1210.3z"/>
		<path fill="#FFFFFF" d="M365.7,1274h-3.5v-3.5h-28.5v-10.6h10.9v-7.1H339l-8.6,0.2v-10.6h14.2v-3.7h-7.1v-14.1h14.1v3.6h3.4v-3.6    h7.3v-7.2h3.5v10.7h-7.2v3.6h10.8v-7.1H380v7.1h3.6v31.7h-28.5v-3.6h-3.5v-21h21.3v14.2h-3.5v-10.8H355v14.1h3.6v3.6h21.5v-24.8    h-3.6v-7.1h-3.6v7.1h-17.8v-3.6h-6.9v-3.6H341v7.2h7.1v10.6h-14.2v3.6l5.1-0.1h9.1v14.1h-10.9v3.7h28.5V1274L365.7,1274    L365.7,1274z M330.4,1220.8v17.9h-3.5v-21.3h7.1v3.5L330.4,1220.8L330.4,1220.8z"/>
		<path fill="#FFFFFF" d="M348.2,1330.7V1320h-17.7v-17.7H327v-3.6h21.2v-7h-3.5v3.5H334V1281h21.3v-3.5h-24.8v17.7h-3.6V1274h32    v10.7h-21.3v7.1h3.5v-3.6h10.7v7.1H380v-7.1h-7.1v3.6h-10.7v-14.2h21.3v3.5h-17.8v7.1h3.6v-3.6h14.2v14.2h-31.9v3.6H380v24.7    h-24.9v-17.7h17.8v10.6h-10.7v-3.5h7.1v-3.6h-10.7v10.7h17.8V1306h-24.8v24.7H348.2L348.2,1330.7z M348.2,1316.5v-3.6h-10.6v-10.6    H334v14.2H348.2z M348.2,1302.3h-7v7.1h7V1302.3z"/>
		<path fill="#FFFFFF" d="M337.5,1388.5H334v-7h6.9v-3.6h7.3v-3.6h7v-3.5h7.1v-3.6h3.6v-3.6h7.1v-3.4h7.1v-3.6H373v-3.6h-7.1v-3.6    h-3.6v-3.6h-7.1v-3.6H348v-3.5h-6.9v-3.6h-7v-0.1h-3.6v39.3h3.6v-3.5h3.3v-3.6h7.1v-3.6h7.1v-3.6h7.3v-3.6h-7.3v-3.6h-6.9v-3.6    h-3.6v-3.6h-3.6v14.3h3.6v-3.6h6.9v3.5h-3.4v3.6H334v-21.3h10.5v3.6h3.5v3.6h6.9v3.5h7.3v10.6H355v3.6h-7.1v3.6h-7.1v3.6h-3.3v3.6    H327v-46.3h17.6v3.6h6.9v3.6h7.1v3.6h7.1v3.6h3.6v3.6h7.1v3.5h7.1v10.6h-7.1v3.4h-7.1v3.6h-3.6v3.6h-7.1v3.6h-6.9v3.6h-7.3v3.5    h-6.9L337.5,1388.5L337.5,1388.5z"/>
		<path fill="#FFFFFF" d="M351.7,1445.2h-3.5v-3.6h-3.6v-10.7H334v7.2h-3.5v-21.4h-3.4v-3.5h3.4v-6.9h7.1V1392h7.1v-3.5h10.6v10.6h7    v7.1h7.1v7.1h14.2v31.7H373v-14.2h-3.7v7.2h-3.5v-7.2h-10.6v10.7h-3.6L351.7,1445.2L351.7,1445.2z M348.2,1392v3.5h3.6v-3.6    L348.2,1392z M344.6,1399.2v-3.6H341v3.6H344.6z M351.6,1402.4v-3.3h-3.5v3.3H351.6z M355.2,1402.6v3.6h3.5v-3.6H355.2z     M344.6,1406.3v-3.7H341v3.7H344.6z M351.6,1409.6v-3.5h-3.5v3.5H351.6z M362.2,1409.7v3.5h3.6v-3.5H362.2z M355.2,1409.7v3.5h3.5    v-3.5H355.2z M344.6,1413.2v-3.4H341v3.4H344.6z M337.6,1409.8H334v3.4h3.6V1409.8z M351.6,1416.7v-3.6h-3.5v3.6H351.6z     M376.4,1416.8v3.5h3.6v-3.5H376.4z M369.3,1416.8v3.5h3.7v-3.5H369.3z M365.8,1416.8h-3.6v3.4h3.6V1416.8z M355.2,1420.2h3.5    v-3.4h-3.5V1420.2z M344.5,1420.2v-3.3h-3.4v3.3H344.5z M337.4,1420.2v-3.3h-3.5v3.3H337.4z M348.2,1423.8h3.5v-3.6h-3.5V1423.8z     M362.2,1423.7v3.7h3.6v-3.7H362.2z M355.2,1423.7v3.7h3.5v-3.7H355.2z M344.5,1427.4v-3.7h-3.4v3.7H344.5z M337.4,1427.4v-3.7    h-3.5v1.9h0.1v1.8L337.4,1427.4L337.4,1427.4z M376.4,1423.9v3.5h3.6v-3.5H376.4z M369.3,1423.9v3.5h3.7v-3.5H369.3z     M351.8,1430.9L351.8,1430.9l-0.2-0.1v-3.6h-3.5v3.7H351.8L351.8,1430.9z M376.4,1430.8v3.7h3.6v-3.7H376.4z M351.8,1438v-3.6    h-3.6v3.6H351.8z M376.4,1438v3.6h3.6v-3.6H376.4z"/>
	</g>
</g>
</svg>